<mxfile host="app.diagrams.net" agent="Mozilla/5.0 (Windows NT 10.0; Win64; x64) AppleWebKit/537.36 (KHTML, like Gecko) Chrome/126.0.0.0 Safari/537.36" version="24.7.4">
  <diagram name="PÃ¡gina-1" id="g8PEM-mGVgpJ65bvs8Fm">
    <mxGraphModel dx="1434" dy="738" grid="1" gridSize="10" guides="1" tooltips="1" connect="1" arrows="1" fold="1" page="1" pageScale="1" pageWidth="827" pageHeight="1169" math="0" shadow="0">
      <root>
        <mxCell id="0" />
        <mxCell id="1" parent="0" />
        <mxCell id="cXwb-PMR_DtNwbmlAOX8-11" value="" style="edgeStyle=orthogonalEdgeStyle;rounded=0;orthogonalLoop=1;jettySize=auto;html=1;" parent="1" source="cXwb-PMR_DtNwbmlAOX8-3" target="cXwb-PMR_DtNwbmlAOX8-4" edge="1">
          <mxGeometry relative="1" as="geometry" />
        </mxCell>
        <mxCell id="wE_8WQzf885d7VuSv7gv-39" style="edgeStyle=orthogonalEdgeStyle;rounded=0;orthogonalLoop=1;jettySize=auto;html=1;" parent="1" source="cXwb-PMR_DtNwbmlAOX8-3" target="wE_8WQzf885d7VuSv7gv-38" edge="1">
          <mxGeometry relative="1" as="geometry" />
        </mxCell>
        <mxCell id="cXwb-PMR_DtNwbmlAOX8-3" value="Amazon Cloudfront" style="sketch=0;outlineConnect=0;fontColor=#232F3E;gradientColor=none;strokeColor=#ffffff;fillColor=#232F3E;dashed=0;verticalLabelPosition=middle;verticalAlign=bottom;align=center;html=1;whiteSpace=wrap;fontSize=10;fontStyle=1;spacing=3;shape=mxgraph.aws4.productIcon;prIcon=mxgraph.aws4.cloudfront;" parent="1" vertex="1">
          <mxGeometry x="680" y="122.5" width="60" height="95" as="geometry" />
        </mxCell>
        <mxCell id="cXwb-PMR_DtNwbmlAOX8-10" value="" style="edgeStyle=orthogonalEdgeStyle;rounded=0;orthogonalLoop=1;jettySize=auto;html=1;" parent="1" source="cXwb-PMR_DtNwbmlAOX8-4" target="cXwb-PMR_DtNwbmlAOX8-3" edge="1">
          <mxGeometry relative="1" as="geometry" />
        </mxCell>
        <mxCell id="cXwb-PMR_DtNwbmlAOX8-4" value="Amazon Route 53" style="sketch=0;outlineConnect=0;fontColor=#232F3E;gradientColor=none;strokeColor=#ffffff;fillColor=#232F3E;dashed=0;verticalLabelPosition=middle;verticalAlign=bottom;align=center;html=1;whiteSpace=wrap;fontSize=10;fontStyle=1;spacing=3;shape=mxgraph.aws4.productIcon;prIcon=mxgraph.aws4.route_53;" parent="1" vertex="1">
          <mxGeometry x="410" y="125" width="60" height="90" as="geometry" />
        </mxCell>
        <mxCell id="cXwb-PMR_DtNwbmlAOX8-14" value="" style="edgeStyle=orthogonalEdgeStyle;rounded=0;orthogonalLoop=1;jettySize=auto;html=1;" parent="1" source="cXwb-PMR_DtNwbmlAOX8-5" target="cXwb-PMR_DtNwbmlAOX8-8" edge="1">
          <mxGeometry relative="1" as="geometry">
            <mxPoint x="410" y="325" as="targetPoint" />
          </mxGeometry>
        </mxCell>
        <mxCell id="cXwb-PMR_DtNwbmlAOX8-5" value="AWS WAF" style="sketch=0;outlineConnect=0;fontColor=#232F3E;gradientColor=none;strokeColor=#ffffff;fillColor=#232F3E;dashed=0;verticalLabelPosition=middle;verticalAlign=bottom;align=center;html=1;whiteSpace=wrap;fontSize=10;fontStyle=1;spacing=3;shape=mxgraph.aws4.productIcon;prIcon=mxgraph.aws4.waf;" parent="1" vertex="1">
          <mxGeometry x="110" y="285" width="60" height="90" as="geometry" />
        </mxCell>
        <mxCell id="cXwb-PMR_DtNwbmlAOX8-12" style="edgeStyle=orthogonalEdgeStyle;rounded=0;orthogonalLoop=1;jettySize=auto;html=1;startArrow=classic;startFill=1;" parent="1" source="cXwb-PMR_DtNwbmlAOX8-6" target="cXwb-PMR_DtNwbmlAOX8-4" edge="1">
          <mxGeometry relative="1" as="geometry" />
        </mxCell>
        <mxCell id="cXwb-PMR_DtNwbmlAOX8-6" value="AWS Certificate Manager" style="sketch=0;outlineConnect=0;fontColor=#232F3E;gradientColor=none;strokeColor=#ffffff;fillColor=#232F3E;dashed=0;verticalLabelPosition=middle;verticalAlign=bottom;align=center;html=1;whiteSpace=wrap;fontSize=10;fontStyle=1;spacing=3;shape=mxgraph.aws4.productIcon;prIcon=mxgraph.aws4.certificate_manager_3;" parent="1" vertex="1">
          <mxGeometry x="110" y="120" width="60" height="100" as="geometry" />
        </mxCell>
        <mxCell id="cXwb-PMR_DtNwbmlAOX8-7" value="AWS Shield" style="sketch=0;outlineConnect=0;fontColor=#232F3E;gradientColor=none;strokeColor=#ffffff;fillColor=#232F3E;dashed=0;verticalLabelPosition=middle;verticalAlign=bottom;align=center;html=1;whiteSpace=wrap;fontSize=10;fontStyle=1;spacing=3;shape=mxgraph.aws4.productIcon;prIcon=mxgraph.aws4.shield;" parent="1" vertex="1">
          <mxGeometry x="680" y="285" width="60" height="90" as="geometry" />
        </mxCell>
        <mxCell id="cXwb-PMR_DtNwbmlAOX8-16" value="" style="edgeStyle=orthogonalEdgeStyle;rounded=0;orthogonalLoop=1;jettySize=auto;html=1;endArrow=blockThin;endFill=1;strokeColor=default;startArrow=classicThin;startFill=1;" parent="1" source="cXwb-PMR_DtNwbmlAOX8-8" target="cXwb-PMR_DtNwbmlAOX8-4" edge="1">
          <mxGeometry relative="1" as="geometry" />
        </mxCell>
        <mxCell id="cXwb-PMR_DtNwbmlAOX8-8" value="" style="outlineConnect=0;dashed=0;verticalLabelPosition=bottom;verticalAlign=top;align=center;html=1;shape=mxgraph.aws3.application_load_balancer;fillColor=#F58534;gradientColor=none;" parent="1" vertex="1">
          <mxGeometry x="405.5" y="294" width="69" height="72" as="geometry" />
        </mxCell>
        <mxCell id="cXwb-PMR_DtNwbmlAOX8-15" style="edgeStyle=orthogonalEdgeStyle;rounded=0;orthogonalLoop=1;jettySize=auto;html=1;entryX=1;entryY=0.5;entryDx=0;entryDy=0;entryPerimeter=0;" parent="1" source="cXwb-PMR_DtNwbmlAOX8-7" target="cXwb-PMR_DtNwbmlAOX8-8" edge="1">
          <mxGeometry relative="1" as="geometry" />
        </mxCell>
        <mxCell id="wE_8WQzf885d7VuSv7gv-16" style="edgeStyle=orthogonalEdgeStyle;rounded=0;orthogonalLoop=1;jettySize=auto;html=1;" parent="1" source="cXwb-PMR_DtNwbmlAOX8-18" target="cXwb-PMR_DtNwbmlAOX8-29" edge="1">
          <mxGeometry relative="1" as="geometry" />
        </mxCell>
        <mxCell id="cXwb-PMR_DtNwbmlAOX8-18" value="Public subnet" style="points=[[0,0],[0.25,0],[0.5,0],[0.75,0],[1,0],[1,0.25],[1,0.5],[1,0.75],[1,1],[0.75,1],[0.5,1],[0.25,1],[0,1],[0,0.75],[0,0.5],[0,0.25]];outlineConnect=0;gradientColor=none;html=1;whiteSpace=wrap;fontSize=12;fontStyle=0;container=1;pointerEvents=0;collapsible=0;recursiveResize=0;shape=mxgraph.aws4.group;grIcon=mxgraph.aws4.group_security_group;grStroke=0;strokeColor=#7AA116;fillColor=#F2F6E8;verticalAlign=top;align=left;spacingLeft=30;fontColor=#248814;dashed=0;" parent="1" vertex="1">
          <mxGeometry x="220" y="430" width="130" height="130" as="geometry" />
        </mxCell>
        <mxCell id="cXwb-PMR_DtNwbmlAOX8-9" value="NAT gateway" style="sketch=0;outlineConnect=0;fontColor=#232F3E;gradientColor=none;strokeColor=#232F3E;fillColor=#ffffff;dashed=0;verticalLabelPosition=bottom;verticalAlign=top;align=center;html=1;fontSize=12;fontStyle=0;aspect=fixed;shape=mxgraph.aws4.resourceIcon;resIcon=mxgraph.aws4.nat_gateway;" parent="cXwb-PMR_DtNwbmlAOX8-18" vertex="1">
          <mxGeometry x="35" y="35" width="60" height="60" as="geometry" />
        </mxCell>
        <mxCell id="wE_8WQzf885d7VuSv7gv-17" style="edgeStyle=orthogonalEdgeStyle;rounded=0;orthogonalLoop=1;jettySize=auto;html=1;" parent="1" source="cXwb-PMR_DtNwbmlAOX8-20" target="wE_8WQzf885d7VuSv7gv-1" edge="1">
          <mxGeometry relative="1" as="geometry" />
        </mxCell>
        <mxCell id="cXwb-PMR_DtNwbmlAOX8-20" value="Public subnet" style="points=[[0,0],[0.25,0],[0.5,0],[0.75,0],[1,0],[1,0.25],[1,0.5],[1,0.75],[1,1],[0.75,1],[0.5,1],[0.25,1],[0,1],[0,0.75],[0,0.5],[0,0.25]];outlineConnect=0;gradientColor=none;html=1;whiteSpace=wrap;fontSize=12;fontStyle=0;container=1;pointerEvents=0;collapsible=0;recursiveResize=0;shape=mxgraph.aws4.group;grIcon=mxgraph.aws4.group_security_group;grStroke=0;strokeColor=#7AA116;fillColor=#F2F6E8;verticalAlign=top;align=left;spacingLeft=30;fontColor=#248814;dashed=0;" parent="1" vertex="1">
          <mxGeometry x="530" y="430" width="130" height="130" as="geometry" />
        </mxCell>
        <mxCell id="cXwb-PMR_DtNwbmlAOX8-21" value="NAT gateway" style="sketch=0;outlineConnect=0;fontColor=#232F3E;gradientColor=none;strokeColor=#232F3E;fillColor=#ffffff;dashed=0;verticalLabelPosition=bottom;verticalAlign=top;align=center;html=1;fontSize=12;fontStyle=0;aspect=fixed;shape=mxgraph.aws4.resourceIcon;resIcon=mxgraph.aws4.nat_gateway;" parent="cXwb-PMR_DtNwbmlAOX8-20" vertex="1">
          <mxGeometry x="35" y="35" width="60" height="60" as="geometry" />
        </mxCell>
        <mxCell id="cXwb-PMR_DtNwbmlAOX8-22" style="edgeStyle=orthogonalEdgeStyle;rounded=0;orthogonalLoop=1;jettySize=auto;html=1;entryX=0.145;entryY=0.855;entryDx=0;entryDy=0;entryPerimeter=0;startArrow=classic;startFill=1;" parent="1" source="cXwb-PMR_DtNwbmlAOX8-18" target="cXwb-PMR_DtNwbmlAOX8-8" edge="1">
          <mxGeometry relative="1" as="geometry" />
        </mxCell>
        <mxCell id="cXwb-PMR_DtNwbmlAOX8-23" style="edgeStyle=orthogonalEdgeStyle;rounded=0;orthogonalLoop=1;jettySize=auto;html=1;entryX=0.855;entryY=0.855;entryDx=0;entryDy=0;entryPerimeter=0;startArrow=classic;startFill=1;" parent="1" source="cXwb-PMR_DtNwbmlAOX8-20" target="cXwb-PMR_DtNwbmlAOX8-8" edge="1">
          <mxGeometry relative="1" as="geometry" />
        </mxCell>
        <mxCell id="wE_8WQzf885d7VuSv7gv-36" style="edgeStyle=orthogonalEdgeStyle;rounded=0;orthogonalLoop=1;jettySize=auto;html=1;startArrow=classic;startFill=1;" parent="1" source="cXwb-PMR_DtNwbmlAOX8-24" target="cXwb-PMR_DtNwbmlAOX8-4" edge="1">
          <mxGeometry relative="1" as="geometry" />
        </mxCell>
        <mxCell id="wE_8WQzf885d7VuSv7gv-37" style="edgeStyle=orthogonalEdgeStyle;rounded=0;orthogonalLoop=1;jettySize=auto;html=1;" parent="1" source="cXwb-PMR_DtNwbmlAOX8-24" target="cXwb-PMR_DtNwbmlAOX8-3" edge="1">
          <mxGeometry relative="1" as="geometry">
            <Array as="points">
              <mxPoint x="710" y="33" />
            </Array>
          </mxGeometry>
        </mxCell>
        <mxCell id="2ZMxWbPnAsnGwOuR6cdE-9" style="edgeStyle=orthogonalEdgeStyle;rounded=0;orthogonalLoop=1;jettySize=auto;html=1;" edge="1" parent="1" source="cXwb-PMR_DtNwbmlAOX8-24" target="2ZMxWbPnAsnGwOuR6cdE-1">
          <mxGeometry relative="1" as="geometry" />
        </mxCell>
        <mxCell id="cXwb-PMR_DtNwbmlAOX8-24" value="" style="sketch=0;outlineConnect=0;fontColor=#232F3E;gradientColor=none;fillColor=#232F3D;strokeColor=none;dashed=0;verticalLabelPosition=bottom;verticalAlign=top;align=center;html=1;fontSize=12;fontStyle=0;aspect=fixed;pointerEvents=1;shape=mxgraph.aws4.users;" parent="1" vertex="1">
          <mxGeometry x="417.5" y="10" width="45" height="45" as="geometry" />
        </mxCell>
        <mxCell id="cXwb-PMR_DtNwbmlAOX8-29" value="Private subnet" style="points=[[0,0],[0.25,0],[0.5,0],[0.75,0],[1,0],[1,0.25],[1,0.5],[1,0.75],[1,1],[0.75,1],[0.5,1],[0.25,1],[0,1],[0,0.75],[0,0.5],[0,0.25]];outlineConnect=0;html=1;whiteSpace=wrap;fontSize=12;fontStyle=0;container=1;pointerEvents=0;collapsible=0;recursiveResize=0;shape=mxgraph.aws4.group;grIcon=mxgraph.aws4.group_security_group;grStroke=0;strokeColor=#FF99CC;fillColor=#0050ef;verticalAlign=top;align=left;spacingLeft=30;dashed=0;fontColor=#ffffff;" parent="1" vertex="1">
          <mxGeometry x="220" y="640" width="130" height="130" as="geometry" />
        </mxCell>
        <mxCell id="cXwb-PMR_DtNwbmlAOX8-25" value="Amazon EC2" style="sketch=0;outlineConnect=0;fontColor=#232F3E;gradientColor=none;strokeColor=#ffffff;fillColor=#232F3E;dashed=0;verticalLabelPosition=middle;verticalAlign=bottom;align=center;html=1;whiteSpace=wrap;fontSize=10;fontStyle=1;spacing=3;shape=mxgraph.aws4.productIcon;prIcon=mxgraph.aws4.ec2;" parent="cXwb-PMR_DtNwbmlAOX8-29" vertex="1">
          <mxGeometry x="35" y="30" width="60" height="90" as="geometry" />
        </mxCell>
        <mxCell id="wE_8WQzf885d7VuSv7gv-1" value="Private subnet" style="points=[[0,0],[0.25,0],[0.5,0],[0.75,0],[1,0],[1,0.25],[1,0.5],[1,0.75],[1,1],[0.75,1],[0.5,1],[0.25,1],[0,1],[0,0.75],[0,0.5],[0,0.25]];outlineConnect=0;html=1;whiteSpace=wrap;fontSize=12;fontStyle=0;container=1;pointerEvents=0;collapsible=0;recursiveResize=0;shape=mxgraph.aws4.group;grIcon=mxgraph.aws4.group_security_group;grStroke=0;strokeColor=#FF99CC;fillColor=#0050ef;verticalAlign=top;align=left;spacingLeft=30;dashed=0;fontColor=#ffffff;" parent="1" vertex="1">
          <mxGeometry x="530" y="640" width="130" height="130" as="geometry" />
        </mxCell>
        <mxCell id="wE_8WQzf885d7VuSv7gv-2" value="Amazon EC2" style="sketch=0;outlineConnect=0;fontColor=#232F3E;gradientColor=none;strokeColor=#ffffff;fillColor=#232F3E;dashed=0;verticalLabelPosition=middle;verticalAlign=bottom;align=center;html=1;whiteSpace=wrap;fontSize=10;fontStyle=1;spacing=3;shape=mxgraph.aws4.productIcon;prIcon=mxgraph.aws4.ec2;" parent="wE_8WQzf885d7VuSv7gv-1" vertex="1">
          <mxGeometry x="35" y="30" width="60" height="90" as="geometry" />
        </mxCell>
        <mxCell id="wE_8WQzf885d7VuSv7gv-3" value="VPC" style="points=[[0,0],[0.25,0],[0.5,0],[0.75,0],[1,0],[1,0.25],[1,0.5],[1,0.75],[1,1],[0.75,1],[0.5,1],[0.25,1],[0,1],[0,0.75],[0,0.5],[0,0.25]];outlineConnect=0;gradientColor=none;html=1;whiteSpace=wrap;fontSize=12;fontStyle=0;container=1;pointerEvents=0;collapsible=0;recursiveResize=0;shape=mxgraph.aws4.group;grIcon=mxgraph.aws4.group_vpc2;strokeColor=#8C4FFF;fillColor=none;verticalAlign=top;align=left;spacingLeft=30;fontColor=#AAB7B8;dashed=0;" parent="1" vertex="1">
          <mxGeometry x="200" y="400" width="170" height="430" as="geometry" />
        </mxCell>
        <mxCell id="cXwb-PMR_DtNwbmlAOX8-27" value="Auto Scaling group" style="points=[[0,0],[0.25,0],[0.5,0],[0.75,0],[1,0],[1,0.25],[1,0.5],[1,0.75],[1,1],[0.75,1],[0.5,1],[0.25,1],[0,1],[0,0.75],[0,0.5],[0,0.25]];outlineConnect=0;gradientColor=none;html=1;whiteSpace=wrap;fontSize=12;fontStyle=0;container=1;pointerEvents=0;collapsible=0;recursiveResize=0;shape=mxgraph.aws4.groupCenter;grIcon=mxgraph.aws4.group_auto_scaling_group;grStroke=1;strokeColor=#D86613;fillColor=none;verticalAlign=top;align=center;fontColor=#D86613;dashed=1;spacingTop=25;strokeWidth=4;" parent="wE_8WQzf885d7VuSv7gv-3" vertex="1">
          <mxGeometry x="-20" y="210" width="520" height="190" as="geometry" />
        </mxCell>
        <mxCell id="wE_8WQzf885d7VuSv7gv-14" value="VPC" style="points=[[0,0],[0.25,0],[0.5,0],[0.75,0],[1,0],[1,0.25],[1,0.5],[1,0.75],[1,1],[0.75,1],[0.5,1],[0.25,1],[0,1],[0,0.75],[0,0.5],[0,0.25]];outlineConnect=0;gradientColor=none;html=1;whiteSpace=wrap;fontSize=12;fontStyle=0;container=1;pointerEvents=0;collapsible=0;recursiveResize=0;shape=mxgraph.aws4.group;grIcon=mxgraph.aws4.group_vpc2;strokeColor=#8C4FFF;fillColor=none;verticalAlign=top;align=left;spacingLeft=30;fontColor=#AAB7B8;dashed=0;" parent="1" vertex="1">
          <mxGeometry x="510" y="400" width="170" height="430" as="geometry" />
        </mxCell>
        <mxCell id="wE_8WQzf885d7VuSv7gv-20" value="Availability Zone" style="fillColor=none;strokeColor=#147EBA;dashed=1;verticalAlign=top;fontStyle=0;fontColor=#147EBA;whiteSpace=wrap;html=1;" parent="1" vertex="1">
          <mxGeometry x="490" y="375" width="220" height="485" as="geometry" />
        </mxCell>
        <mxCell id="wE_8WQzf885d7VuSv7gv-21" value="Availability Zone" style="fillColor=none;strokeColor=#147EBA;dashed=1;verticalAlign=top;fontStyle=0;fontColor=#147EBA;whiteSpace=wrap;html=1;" parent="1" vertex="1">
          <mxGeometry x="170" y="375" width="220" height="485" as="geometry" />
        </mxCell>
        <mxCell id="wE_8WQzf885d7VuSv7gv-26" style="edgeStyle=orthogonalEdgeStyle;rounded=0;orthogonalLoop=1;jettySize=auto;html=1;startArrow=classic;startFill=1;" parent="1" source="wE_8WQzf885d7VuSv7gv-23" target="wE_8WQzf885d7VuSv7gv-25" edge="1">
          <mxGeometry relative="1" as="geometry" />
        </mxCell>
        <mxCell id="wE_8WQzf885d7VuSv7gv-23" value="" style="sketch=0;outlineConnect=0;fontColor=#232F3E;gradientColor=none;fillColor=#8C4FFF;strokeColor=none;dashed=0;verticalLabelPosition=bottom;verticalAlign=top;align=center;html=1;fontSize=12;fontStyle=0;aspect=fixed;pointerEvents=1;shape=mxgraph.aws4.endpoint;" parent="1" vertex="1">
          <mxGeometry x="401" y="900" width="78" height="78" as="geometry" />
        </mxCell>
        <mxCell id="wE_8WQzf885d7VuSv7gv-25" value="" style="sketch=0;points=[[0,0,0],[0.25,0,0],[0.5,0,0],[0.75,0,0],[1,0,0],[0,1,0],[0.25,1,0],[0.5,1,0],[0.75,1,0],[1,1,0],[0,0.25,0],[0,0.5,0],[0,0.75,0],[1,0.25,0],[1,0.5,0],[1,0.75,0]];outlineConnect=0;fontColor=#232F3E;fillColor=#C925D1;strokeColor=#ffffff;dashed=0;verticalLabelPosition=bottom;verticalAlign=top;align=center;html=1;fontSize=12;fontStyle=0;aspect=fixed;shape=mxgraph.aws4.resourceIcon;resIcon=mxgraph.aws4.dynamodb;" parent="1" vertex="1">
          <mxGeometry x="401" y="1030" width="78" height="78" as="geometry" />
        </mxCell>
        <mxCell id="wE_8WQzf885d7VuSv7gv-27" style="edgeStyle=orthogonalEdgeStyle;rounded=0;orthogonalLoop=1;jettySize=auto;html=1;entryX=0.545;entryY=0.814;entryDx=0;entryDy=0;entryPerimeter=0;" parent="1" source="wE_8WQzf885d7VuSv7gv-23" target="wE_8WQzf885d7VuSv7gv-21" edge="1">
          <mxGeometry relative="1" as="geometry" />
        </mxCell>
        <mxCell id="wE_8WQzf885d7VuSv7gv-28" style="edgeStyle=orthogonalEdgeStyle;rounded=0;orthogonalLoop=1;jettySize=auto;html=1;entryX=0.455;entryY=0.814;entryDx=0;entryDy=0;entryPerimeter=0;" parent="1" source="wE_8WQzf885d7VuSv7gv-23" target="wE_8WQzf885d7VuSv7gv-20" edge="1">
          <mxGeometry relative="1" as="geometry" />
        </mxCell>
        <mxCell id="wE_8WQzf885d7VuSv7gv-29" value="VPC Endpoint" style="text;strokeColor=none;fillColor=none;html=1;fontSize=24;fontStyle=1;verticalAlign=middle;align=center;" parent="1" vertex="1">
          <mxGeometry x="390" y="860" width="100" height="40" as="geometry" />
        </mxCell>
        <mxCell id="wE_8WQzf885d7VuSv7gv-30" value="DynamoDB Global Table" style="text;strokeColor=none;fillColor=none;html=1;fontSize=24;fontStyle=1;verticalAlign=middle;align=center;" parent="1" vertex="1">
          <mxGeometry x="401" y="1108" width="100" height="40" as="geometry" />
        </mxCell>
        <mxCell id="wE_8WQzf885d7VuSv7gv-31" value="Region" style="sketch=0;outlineConnect=0;gradientColor=none;html=1;whiteSpace=wrap;fontSize=12;fontStyle=0;shape=mxgraph.aws4.group;grIcon=mxgraph.aws4.group_region;strokeColor=#879196;fillColor=none;verticalAlign=top;align=left;spacingLeft=30;fontColor=#879196;dashed=1;strokeWidth=3;" parent="1" vertex="1">
          <mxGeometry x="95" y="250" width="690" height="750" as="geometry" />
        </mxCell>
        <mxCell id="wE_8WQzf885d7VuSv7gv-38" value="Amazon S3" style="sketch=0;outlineConnect=0;fontColor=#232F3E;gradientColor=none;strokeColor=#ffffff;fillColor=#232F3E;dashed=0;verticalLabelPosition=middle;verticalAlign=bottom;align=center;html=1;whiteSpace=wrap;fontSize=10;fontStyle=1;spacing=3;shape=mxgraph.aws4.productIcon;prIcon=mxgraph.aws4.s3;" parent="1" vertex="1">
          <mxGeometry x="860" y="214" width="60" height="80" as="geometry" />
        </mxCell>
        <mxCell id="wE_8WQzf885d7VuSv7gv-40" value="Amazon CloudWatch" style="sketch=0;outlineConnect=0;fontColor=#232F3E;gradientColor=none;strokeColor=#ffffff;fillColor=#232F3E;dashed=0;verticalLabelPosition=middle;verticalAlign=bottom;align=center;html=1;whiteSpace=wrap;fontSize=10;fontStyle=1;spacing=3;shape=mxgraph.aws4.productIcon;prIcon=mxgraph.aws4.cloudwatch;" parent="1" vertex="1">
          <mxGeometry x="857.5" y="335" width="65" height="95" as="geometry" />
        </mxCell>
        <mxCell id="wE_8WQzf885d7VuSv7gv-42" value="Amazon CloudSearch" style="sketch=0;outlineConnect=0;fontColor=#232F3E;gradientColor=none;strokeColor=#ffffff;fillColor=#232F3E;dashed=0;verticalLabelPosition=middle;verticalAlign=bottom;align=center;html=1;whiteSpace=wrap;fontSize=10;fontStyle=1;spacing=3;shape=mxgraph.aws4.productIcon;prIcon=mxgraph.aws4.cloudsearch;" parent="1" vertex="1">
          <mxGeometry x="862.5" y="460" width="60" height="100" as="geometry" />
        </mxCell>
        <mxCell id="wE_8WQzf885d7VuSv7gv-48" value="" style="group" parent="1" connectable="0" vertex="1">
          <mxGeometry x="840" y="580" width="100" height="100" as="geometry" />
        </mxCell>
        <mxCell id="wE_8WQzf885d7VuSv7gv-44" value="" style="outlineConnect=0;dashed=0;verticalLabelPosition=bottom;verticalAlign=top;align=center;html=1;shape=mxgraph.aws3.iam;fillColor=#759C3E;gradientColor=none;" parent="wE_8WQzf885d7VuSv7gv-48" vertex="1">
          <mxGeometry x="34.5" width="31" height="60" as="geometry" />
        </mxCell>
        <mxCell id="wE_8WQzf885d7VuSv7gv-45" value="&lt;p style=&quot;line-height: 50%;&quot;&gt;&lt;span style=&quot;font-weight: normal;&quot;&gt;aws iam&lt;/span&gt;&lt;/p&gt;" style="text;strokeColor=none;fillColor=none;html=1;fontSize=24;fontStyle=1;verticalAlign=middle;align=center;" parent="wE_8WQzf885d7VuSv7gv-48" vertex="1">
          <mxGeometry y="60" width="100" height="40" as="geometry" />
        </mxCell>
        <mxCell id="wE_8WQzf885d7VuSv7gv-50" value="Amazon SNS" style="sketch=0;outlineConnect=0;fontColor=#232F3E;gradientColor=none;strokeColor=#ffffff;fillColor=#232F3E;dashed=0;verticalLabelPosition=middle;verticalAlign=bottom;align=center;html=1;whiteSpace=wrap;fontSize=10;fontStyle=1;spacing=3;shape=mxgraph.aws4.productIcon;prIcon=mxgraph.aws4.sns;" parent="1" vertex="1">
          <mxGeometry x="862.5" y="730" width="62" height="90" as="geometry" />
        </mxCell>
        <mxCell id="wE_8WQzf885d7VuSv7gv-51" value="AWS Cloud" style="sketch=0;outlineConnect=0;gradientColor=none;html=1;whiteSpace=wrap;fontSize=12;fontStyle=0;shape=mxgraph.aws4.group;grIcon=mxgraph.aws4.group_aws_cloud;strokeColor=#7EA6E0;fillColor=none;verticalAlign=top;align=left;spacingLeft=30;fontColor=#AAB7B8;dashed=0;strokeWidth=3;" parent="1" vertex="1">
          <mxGeometry x="60" y="90" width="930" height="1080" as="geometry" />
        </mxCell>
        <mxCell id="2ZMxWbPnAsnGwOuR6cdE-1" value="Amazon Cognito" style="sketch=0;outlineConnect=0;fontColor=#232F3E;gradientColor=none;strokeColor=#ffffff;fillColor=#232F3E;dashed=0;verticalLabelPosition=middle;verticalAlign=bottom;align=center;html=1;whiteSpace=wrap;fontSize=10;fontStyle=1;spacing=3;shape=mxgraph.aws4.productIcon;prIcon=mxgraph.aws4.cognito;" vertex="1" parent="1">
          <mxGeometry x="270" y="140" width="50" height="80" as="geometry" />
        </mxCell>
        <mxCell id="2ZMxWbPnAsnGwOuR6cdE-5" value="" style="group" vertex="1" connectable="0" parent="1">
          <mxGeometry x="850" y="860" width="80" height="100.5" as="geometry" />
        </mxCell>
        <mxCell id="2ZMxWbPnAsnGwOuR6cdE-3" value="" style="outlineConnect=0;dashed=0;verticalLabelPosition=bottom;verticalAlign=top;align=center;html=1;shape=mxgraph.aws3.database_migration_service;fillColor=#2E73B8;gradientColor=none;" vertex="1" parent="2ZMxWbPnAsnGwOuR6cdE-5">
          <mxGeometry x="11.200000000000001" width="57.6" height="67.27685950413223" as="geometry" />
        </mxCell>
        <mxCell id="2ZMxWbPnAsnGwOuR6cdE-4" value="&lt;span style=&quot;font-weight: normal;&quot;&gt;&lt;font style=&quot;font-size: 16px;&quot;&gt;AWS DMS&lt;/font&gt;&lt;/span&gt;" style="text;strokeColor=none;fillColor=none;html=1;fontSize=24;fontStyle=1;verticalAlign=middle;align=center;" vertex="1" parent="2ZMxWbPnAsnGwOuR6cdE-5">
          <mxGeometry y="67.27685950413223" width="80" height="33.22314049586777" as="geometry" />
        </mxCell>
        <mxCell id="2ZMxWbPnAsnGwOuR6cdE-8" value="" style="group" vertex="1" connectable="0" parent="1">
          <mxGeometry x="838" y="978" width="100" height="110" as="geometry" />
        </mxCell>
        <mxCell id="2ZMxWbPnAsnGwOuR6cdE-6" value="" style="outlineConnect=0;dashed=0;verticalLabelPosition=bottom;verticalAlign=top;align=center;html=1;shape=mxgraph.aws3.application_discovery_service;fillColor=#5294CF;gradientColor=none;" vertex="1" parent="2ZMxWbPnAsnGwOuR6cdE-8">
          <mxGeometry x="18" width="64" height="70" as="geometry" />
        </mxCell>
        <mxCell id="2ZMxWbPnAsnGwOuR6cdE-7" value="&lt;font style=&quot;font-size: 16px; font-weight: normal;&quot;&gt;AWS MGN&lt;/font&gt;" style="text;strokeColor=none;fillColor=none;html=1;fontSize=24;fontStyle=1;verticalAlign=middle;align=center;" vertex="1" parent="2ZMxWbPnAsnGwOuR6cdE-8">
          <mxGeometry y="70" width="100" height="40" as="geometry" />
        </mxCell>
        <mxCell id="2ZMxWbPnAsnGwOuR6cdE-10" value="Elastic Beanstalk container" style="points=[[0,0],[0.25,0],[0.5,0],[0.75,0],[1,0],[1,0.25],[1,0.5],[1,0.75],[1,1],[0.75,1],[0.5,1],[0.25,1],[0,1],[0,0.75],[0,0.5],[0,0.25]];outlineConnect=0;gradientColor=none;html=1;whiteSpace=wrap;fontSize=12;fontStyle=0;container=1;pointerEvents=0;collapsible=0;recursiveResize=0;shape=mxgraph.aws4.group;grIcon=mxgraph.aws4.group_elastic_beanstalk;strokeColor=#D86613;fillColor=none;verticalAlign=top;align=left;spacingLeft=30;fontColor=#D86613;dashed=0;strokeWidth=3;" vertex="1" parent="1">
          <mxGeometry x="150" y="580" width="580" height="240" as="geometry" />
        </mxCell>
      </root>
    </mxGraphModel>
  </diagram>
</mxfile>
